M48
INCH
T1C00.032
T2C00.035
T3C00.037
T4C00.040
T5C00.042
T6C00.045
T7C00.050
T8C00.052
T9C00.060
T10C00.125
%
T001
X00517Y02817
X00517Y03017
X00517Y03117
X00517Y03217
X00517Y03317
X00517Y03917
X00517Y06117
X00717Y02817
X00717Y06117
X00817Y02417
X00817Y02817
X00817Y03017
X00817Y03117
X00817Y03217
X00817Y03317
X00917Y03917
X01017Y03517
X01017Y03917
X01017Y05017
X01017Y05317
X01167Y02917
X01204Y05929
X01217Y03917
X01217Y05017
X01217Y05317
X01267Y02917
X01304Y05929
X01317Y03117
X01417Y05017
X01417Y05317
X01467Y05817
X01467Y06217
X01517Y03117
X01517Y03217
X01517Y03617
X01567Y05817
X01567Y06217
X01617Y03217
X01617Y03617
X01617Y03917
X01717Y02917
X01717Y03117
X01717Y03217
X01717Y03617
X01717Y04717
X01717Y04817
X01717Y05017
X01717Y05317
X01717Y05917
X01717Y06017
X01817Y02917
X01817Y03217
X01817Y03617
X01817Y04917
X01817Y05317
X01917Y02917
X01917Y03317
X01917Y03617
X01917Y03717
X01917Y04117
X02017Y03317
X02017Y03617
X02017Y03717
X02017Y04117
X02017Y05917
X02017Y06017
X02117Y03117
X02117Y03317
X02117Y03617
X02117Y03717
X02117Y04117
X02117Y05017
X02117Y05317
X02217Y03317
X02217Y03617
X02217Y03717
X02217Y04117
X02317Y02917
X02317Y03217
X02317Y03617
X02317Y04117
X02317Y05017
X02317Y05317
X02417Y03017
X02417Y03417
X02417Y05517
X02467Y03967
X02517Y05017
X02517Y05317
X02567Y03967
X02617Y02517
X02617Y02717
X02717Y04117
X02717Y05967
X02817Y00717
X02817Y01117
X02817Y02817
X02817Y04717
X02817Y04817
X02817Y05017
X02817Y05317
X02817Y05517
X02917Y04917
X02917Y05317
X03017Y00717
X03017Y01117
X03017Y03917
X03017Y04016
X03017Y04917
X03017Y05317
X03017Y05517
X03017Y05817
X03117Y02817
X03117Y02917
X03117Y03017
X03117Y03117
X03117Y03217
X03117Y03317
X03117Y03617
X03117Y05517
X03117Y05817
X03117Y05967
X03217Y00717
X03217Y01117
X03217Y01717
X03217Y02317
X03217Y02617
X03217Y02817
X03217Y03317
X03217Y03617
X03217Y03717
X03217Y03817
X03217Y04117
X03217Y04417
X03217Y05017
X03217Y05317
X03217Y05517
X03217Y05817
X03317Y01817
X03317Y01917
X03317Y02017
X03317Y02117
X03317Y02717
X03317Y03317
X03317Y03617
X03317Y05517
X03317Y05817
X03417Y01429
X03417Y01617
X03417Y02217
X03417Y03317
X03417Y03617
X03417Y03917
X03417Y04016
X03417Y04117
X03417Y04417
X03417Y05017
X03417Y05317
X03417Y05517
X03417Y05817
X03417Y05967
X03517Y02717
X03517Y02817
X03517Y02917
X03517Y03017
X03517Y03117
X03517Y03217
X03517Y03917
X03517Y05517
X03517Y05817
X03517Y05967
X03567Y03417
X03567Y03517
X03617Y01717
X03617Y01817
X03617Y01917
X03617Y02017
X03617Y02117
X03617Y02217
X03617Y02317
X03617Y02617
X03617Y02817
X03617Y03217
X03617Y03717
X03617Y03817
X03617Y04117
X03617Y04417
X03617Y05017
X03617Y05317
X03617Y05517
X03617Y05817
X03617Y05967
X03717Y03217
X03717Y03617
X03717Y05517
X03717Y05817
X03717Y05967
X03729Y01717
X03729Y02017
X03817Y01429
X03817Y01617
X03817Y05967
X03917Y03917
X03917Y04117
X03917Y04417
X03917Y04717
X03917Y04817
X03917Y05017
X03917Y05317
X03917Y05717
X03917Y05817
X04016Y04917
X04016Y05317
T002
X02217Y04317
X02317Y04317
X02417Y04317
X04016Y01517
X04016Y01617
X04016Y01717
X04016Y03217
X04016Y03317
X04016Y03417
X04016Y03617
X04016Y03717
X04016Y03817
T003
X00517Y02917
X00917Y02917
X00917Y06267
X01017Y04767
X01017Y06267
X01117Y04767
X01167Y03417
X01217Y04767
X01317Y04767
X01417Y04767
X01717Y04317
X01817Y04317
X01817Y06217
X01817Y06317
X01867Y05517
X01917Y04317
X01917Y06217
X01917Y06317
X01967Y05517
X02017Y04317
X02017Y06217
X02017Y06317
X02067Y05517
X02117Y04317
X02117Y04767
X02117Y06217
X02117Y06317
X02167Y05517
X02217Y04767
X02217Y06217
X02217Y06317
X02317Y04767
X02417Y04767
X02517Y04767
X02617Y06217
X02617Y06317
X02717Y06217
X02717Y06317
X02817Y06217
X02817Y06317
X02917Y06217
X02917Y06317
X03017Y06217
X03017Y06317
X03217Y04767
X03317Y04767
X03417Y04767
X03517Y04767
X03617Y04767
X04016Y01217
X04016Y01317
T004
X00517Y01217
X00517Y01417
X00517Y01767
X00517Y02217
X00717Y01217
X00717Y01417
X00717Y01767
X00717Y02217
X00817Y04217
X01017Y04217
X01167Y03217
T005
X01117Y02617
X01217Y02617
X01217Y02717
X01317Y02617
X01817Y02617
X01917Y02617
X01917Y02717
X02017Y02617
T006
X00517Y03667
X00917Y03567
X00917Y03767
X02567Y03217
X02567Y03717
X02817Y02017
X02817Y02617
X02917Y01617
X02917Y02217
X02967Y03117
X02967Y03317
X02967Y03617
X02967Y03817
X03017Y02017
X03017Y02617
T007
X01070Y00654
X01070Y02032
X01267Y02032
X01463Y00654
X02054Y00654
X02251Y02032
X02448Y00654
X02448Y02032
X02917Y00517
X03017Y00517
X03217Y00517
T008
X00617Y05617
X00617Y05817
T009
X01161Y06267
X01279Y01504
X01279Y01660
X01279Y01816
X01317Y06267
X04016Y00892
X04016Y01047
T010
X00529Y00467
X00529Y06392
X04092Y00467
X04092Y06392
M30
